# AST/ASF file generated using VICON BodyLanguage
# -----------------------------------------------
:version 1.10
:name VICON
:units
  mass 1.0
  length 0.45
  angle deg
:documentation
   .ast/.asf automatically generated from VICON data using
   VICON BodyBuilder and BodyLanguage model FoxedUp or BRILLIANT.MOD
:root
   order TX TY TZ RX RY RZ
   axis XYZ
   position 0 0 0  
   orientation 0 0 0 
:bonedata
  begin
     id 1 
     name lhipjoint
     direction 0.710188 -0.616876 0.339259 
     length 2.5669 
     axis 0 0 0  XYZ
  end
  begin
     id 2 
     name lfemur
     direction 0.34202 -0.939693 0  
     length 7.12796  
     axis 0 0 20  XYZ
    dof rx ry rz
    limits (-160.0 20.0)
           (-70.0 70.0)
           (-60.0 70.0)
  end
  begin
     id 3 
     name ltibia
     direction 0.34202 -0.939693 0   
     length 7.58108   
     axis 0 0 20   XYZ
    dof rx
    limits (-10.0 170.0)
  end
  begin
     id 4 
     name lfoot
     direction 0.0669471 -0.183936 0.980656   
     length 2.17365   
     axis -90 7.62852e-016 20   XYZ
    dof rx rz
    limits (-45.0 90.0)
           (-70.0 20.0)
  end
  begin
     id 5 
     name ltoes
     direction 1.53508e-011 -4.21705e-011 1   
     length 1.09427   
     axis -90 7.62852e-016 20   XYZ
    dof rx
    limits (-90.0 20.0)
  end
  begin
     id 6 
     name rhipjoint
     direction -0.700191 -0.625589 0.34405   
     length 2.53115  
     axis 0 0 0  XYZ 
  end
  begin
     id 7 
     name rfemur
     direction -0.34202 -0.939693 0   
     length 7.33006   
     axis 0 0 -20   XYZ
    dof rx ry rz
    limits (-160.0 20.0)
           (-70.0 70.0)
           (-70.0 60.0)
  end
  begin
     id 8 
     name rtibia
     direction -0.34202 -0.939693 0   
     length 7.64926   
     axis 0 0 -20   XYZ
    dof rx
    limits (-10.0 170.0)
 end
 begin
     id 9 
     name rfoot
     direction -0.0688927 -0.189281 0.979503   
     length 2.20493  
     axis -90 -7.62852e-016 -20   XYZ
    dof rx rz
    limits (-45.0 90.0)
           (-20.0 70.0)
  end
  begin
     id 10 
     name rtoes
     direction -1.53567e-011 -4.21933e-011 1   
     length 1.10919   
     axis -90 -7.62852e-016 -20   XYZ
    dof rx
    limits (-90.0 20.0)
  end
  begin
     id 11 
     name lowerback
     direction -0.0167868 0.989873 -0.140959   
     length 2.14596   
     axis 0 0 0   XYZ
    dof rx ry rz
    limits (-20.0 45.0)
           (-30.0 30.0)
           (-30.0 30.0)
  end
  begin
     id 12 
     name upperback
     direction 0.0129109 0.998033 0.0613525   
     length 2.10457   
     axis 0 0 0   XYZ
    dof rx ry rz
    limits (-20.0 45.0)
           (-30.0 30.0)
           (-30.0 30.0)
  end
  begin
     id 13 
     name thorax
     direction 0.0177047 0.991119 0.131797   
     length 2.17652   
     axis 0 0 0   XYZ
    dof rx ry rz
    limits (-20.0 45.0)
           (-30.0 30.0)
           (-30.0 30.0)
  end
  begin
     id 14 
     name lowerneck
     direction -0.0336893 0.997548 0.0613464   
     length 1.8912   
     axis 0 0 0   XYZ
    dof rx ry rz
    limits (-20.0 45.0)
           (-30.0 30.0)
           (-30.0 30.0)
  end
  begin
     id 15 
     name upperneck
     direction 0.0435909 0.997179 -0.0611028   
     length 1.8829   
     axis 0 0 0   XYZ
    dof rx ry rz
    limits (-20.0 45.0)
           (-30.0 30.0)
           (-30.0 30.0)
  end
  begin
     id 16
     name head
     direction 0.0175076 0.999444 -0.0283782  
     length 1.93197  
     axis 0 0 0   XYZ
    dof rx ry rz
    limits (-20.0 45.0)
           (-30.0 30.0)
           (-30.0 30.0)
  end
  begin
     id 17 
     name lclavicle
     direction 0.919164 0.389875 0.0559876  
     length 3.60004  
     axis 0 0 0   XYZ
    dof ry rz
    limits (-20.0 10.0)
           (0.0 20.0)
  end
  begin
     id 18 
     name lhumerus
     direction 1 -4.48958e-011 6.89191e-027   
     length 5.43301   
     axis 180 -30 -90   XYZ
    dof rx ry rz
    limits (-60.0 90.0)
           (-90.0 90.0)
           (-90.0 90.0)
  end
  begin
     id 19
     name lradius
     direction 1 -4.4897e-011 3.24727e-027   
     length 3.15936   
     axis 180 -30 -90   XYZ
    dof rx
    limits (-10.0 170.0)
  end
  begin
     id 20
     name lwrist
     direction 1 -4.4897e-011 9.00228e-027   
     length 1.57968   
     axis -6.29373e-015 90 90   XYZ
    dof ry
    limits (-180.0 0.0)
 end
  begin
     id 21 
     name lhand
     direction 1 -4.48968e-011 1.80042e-026   
     length 0.712827   
     axis -1.14882e-014 90 90   XYZ
    dof rx rz
    limits (-90.0 90.0)
           (-45.0 45.0)
  end
  begin
     id 22 
     name lfingers
     direction 1 -4.49019e-011 3.60267e-026   
     length 0.574699   
     axis -2.29769e-014 90 90   XYZ
    dof rx
    limits (0.0 90.0)
  end
  begin
     id 23
     name lthumb
     direction 0.707107 -6.3498e-011 0.707107   
     length 0.825157   
     axis -90 45 5.37419e-014   XYZ
    dof rx rz
    limits (-45.0 45.0)
           (-45.0 45.0)
  end
  begin
     id 24 
     name rclavicle
     direction -0.890334 0.455305 -0.00132111   
     length 3.51494  
     axis 0 0 0   XYZ 
    dof ry rz
    limits (-10.0 20.0)
           (-20.0 0.0)
  end
  begin
     id 25 
     name rhumerus
     direction -1 -4.48967e-011 5.07175e-028  
     length 5.34194   
     axis 180 30 90   XYZ
    dof rx ry rz
    limits (-90.0 60.0)
           (-90.0 90.0)
           (-90.0 90.0)
  end
  begin
     id 26 
     name rradius
     direction -1 -4.48955e-011 3.30467e-027   
     length 3.19351   
     axis 180 30 90   XYZ
    dof rx
    limits (-10.0 170.0)
  end
  begin
     id 27 
     name rwrist
     direction -1 -4.48968e-011 9.00208e-027   
     length 1.59676   
     axis -6.29373e-015 -90 -90   XYZ
    dof ry
    limits (-180.0 0.0)
  end
  begin
     id 28
     name rhand
     direction -1 -4.49e-011 1.80099e-026   
     length 0.743862   
     axis -1.14882e-014 -90 -90   XYZ
    dof rx rz
    limits (-90.0 90.0)
           (-45.0 45.0)
  end
  begin
     id 29
     name rfingers
     direction -1 -4.49009e-011 3.6023e-026   
     length 0.599721   
     axis -2.29769e-014 -90 -90   XYZ
    dof rx
    limits (0.0 90.0)
  end
  begin
     id 30
     name rthumb
     direction -0.707107 -6.35025e-011 0.707107   
     length 0.861083   
     axis -90 -45 -5.37419e-014   XYZ
    dof rx rz
    limits (-45.0 45.0)
           (-45.0 45.0)
  end
:hierarchy
  begin
    root lhipjoint rhipjoint lowerback
    lhipjoint lfemur
    lfemur ltibia
    ltibia lfoot
    lfoot ltoes
    rhipjoint rfemur
    rfemur rtibia
    rtibia rfoot
    rfoot rtoes
    lowerback upperback
    upperback thorax
    thorax lowerneck lclavicle rclavicle
    lowerneck upperneck
    upperneck head
    lclavicle lhumerus
    lhumerus lradius
    lradius lwrist
    lwrist lhand lthumb
    lhand lfingers
    rclavicle rhumerus
    rhumerus rradius
    rradius rwrist
    rwrist rhand rthumb
    rhand rfingers
  end

#!OML:ASF H:\Martial Arts Walks\Project 1\Capture day 1\Session 1\male.ASF
:FULLY-SPECIFIED
:DEGREES
1789
root -4.58454 15.5005 -22.5845 361.753 -20.2644 -7.61001
lowerback 24.4275 -2.65599 5.07544
upperback 4.20257 -1.91774 3.07415
thorax -8.9991 -1.0486 1.10728
lowerneck -2.77905 7.85261 0.267
upperneck -1.51246 10.463 -3.00969
head 0.169651 5.22798 -0.84368
rclavicle -1.75427e-014 -5.96354e-016
rhumerus -75.331 23.6443 -98.9233
rradius 103.943
rwrist -75.1172
rhand 0.481094 -20.3579
rfingers 7.12502
rthumb 26.0511 -48.5916
lclavicle -1.75427e-014 -5.96354e-016
lhumerus 86.1733 -69.2515 4.6608
lradius 73.8086
lwrist 28.3296
lhand -16.8535 382.401
lfingers 7.12502
lthumb 9.3767 412.173
rfemur -21.1945 -4.00389 26.2801
rtibia 60.9792
rfoot -29.8617 -6.92498
rtoes -1.06482
lfemur -91.8866 9.50433 -30.6436
ltibia 119.492
lfoot -12.463 8.88529
ltoes -13.5551
1790
root -4.57945 15.527 -22.6517 360.743 -20.2283 -7.59234
lowerback 25.501 -2.70705 5.2
upperback 4.58175 -1.90683 2.94301
thorax -9.1367 -1.04842 0.919341
lowerneck -2.90676 7.79634 0.322228
upperneck -1.69985 10.3828 -3.08112
head 0.138766 5.18852 -0.874117
rclavicle 2.34069e-014 -2.41523e-014
rhumerus -75.1915 23.6049 -99.0534
rradius 104.006
rwrist -75.0025
rhand 0.449294 -20.3669
rfingers 7.12502
rthumb 26.0206 -48.6051
lclavicle 2.34069e-014 -2.41523e-014
lhumerus 90.4768 -68.0117 1.60984
lradius 76.5979
lwrist 31.0116
lhand -17.8943 383.623
lfingers 7.12502
lthumb 8.37234 413.437
rfemur -20.0696 -3.8578 26.3387
rtibia 60.3574
rfoot -29.3276 -7.12958
rtoes -0.798313
lfemur -93.3457 8.74533 -30.6971
ltibia 119.72
lfoot -12.4469 8.8927
ltoes -13.8767
1791
root -4.57161 15.5598 -22.7143 359.596 -20.2243 -7.55493
lowerback 26.6838 -2.79652 5.30292
upperback 4.96474 -1.94311 2.80026
thorax -9.318 -1.07044 0.749648
lowerneck -2.93342 7.81901 0.294482
upperneck -1.8862 10.4099 -3.07586
head 0.0847062 5.20419 -0.871575
rclavicle -3.88003e-014 1.57537e-014
rhumerus -75.1874 23.7097 -99.2499
rradius 104.097
rwrist -74.9322
rhand 0.426913 -20.2383
rfingers 7.12502
rthumb 25.9992 -48.4796
lclavicle -3.88003e-014 1.57537e-014
lhumerus 93.7158 -66.7569 -0.378711
lradius 79.3538
lwrist 33.9875
lhand -17.6607 383.712
lfingers 7.12502
lthumb 8.59777 413.517
rfemur -18.7927 -3.72348 26.3659
rtibia 59.7521
rfoot -28.791 -7.43081
rtoes -0.844703
lfemur -94.7459 8.03553 -30.6886
ltibia 119.844
lfoot -12.443 8.62666
ltoes -13.6931
1792
root -4.5629 15.5872 -22.7723 358.363 -20.3042 -7.40901
lowerback 27.941 -2.80895 5.33398
upperback 5.34412 -1.898 2.61894
thorax -9.52762 -1.05311 0.550674
lowerneck -3.00266 7.77228 0.346504
upperneck -2.03492 10.3429 -3.12788
head 0.0550382 5.17141 -0.897097
rclavicle 2.33075e-014 -3.86388e-014
rhumerus -75.2302 23.6874 -99.4488
rradius 104.209
rwrist -74.7744
rhand 0.188561 -20.1787
rfingers 7.12502
rthumb 25.771 -48.4533
lclavicle 2.33075e-014 -3.86388e-014
lhumerus 96.5091 -65.4524 -1.75089
lradius 82.0256
lwrist 37.0294
lhand -17.8972 384.079
lfingers 7.12502
lthumb 8.36959 413.893
rfemur -17.4937 -3.47757 26.3192
rtibia 59.2166
rfoot -28.1603 -8.17112
rtoes -1.98235
lfemur -96.1046 7.33604 -30.6635
ltibia 119.929
lfoot -12.491 8.51426
ltoes -14.0056
1793
root -4.55471 15.6115 -22.8279 357.045 -20.4475 -7.22474
lowerback 29.3702 -2.76233 5.22433
upperback 5.66777 -1.79981 2.48144
thorax -9.86773 -1.00878 0.467028
lowerneck -3.06789 7.7443 0.373384
upperneck -2.06646 10.3043 -3.1673
head 0.0589586 5.15172 -0.911663
rclavicle 5.60759e-014 -4.4975e-014
rhumerus -75.3636 23.6869 -99.5842
rradius 104.27
rwrist -74.7286
rhand -0.0585204 -20.3833
rfingers 7.12502
rthumb 25.5343 -48.6921
lclavicle 5.60759e-014 -4.4975e-014
lhumerus 98.5304 -64.2007 -2.1614
lradius 84.5303
lwrist 40.1203
lhand -17.3403 383.979
lfingers 7.12502
lthumb 8.90699 413.771
rfemur -16.1281 -3.12588 26.2391
rtibia 58.7328
rfoot -27.6782 -8.41151
rtoes -0.874067
lfemur -97.4403 6.74392 -30.6081
ltibia 119.995
lfoot -12.6333 8.40602
ltoes -14.2544
1794
root -4.55016 15.6302 -22.8859 355.621 -20.8303 -6.98221
lowerback 30.6588 -2.69853 5.07789
upperback 6.13991 -1.73181 2.22789
thorax -9.95752 -0.977104 0.268895
lowerneck -2.961 7.76758 0.363237
upperneck -2.3869 10.3286 -3.1125
head -0.0595652 5.16842 -0.906518
rclavicle -2.10588e-015 1.60643e-014
rhumerus -75.3398 23.8204 -99.8701
rradius 104.312
rwrist -74.7674
rhand -0.204525 -20.3951
rfingers 7.12502
rthumb 25.3945 -48.7239
lclavicle -2.10588e-015 1.60643e-014
lhumerus 99.9872 -62.7198 -2.36797
lradius 87.2228
lwrist 43.2672
lhand -17.4809 384.535
lfingers 7.12502
lthumb 8.77126 414.332
rfemur -14.7129 -2.53616 26.1918
rtibia 58.3224
rfoot -27.1074 -8.99116
rtoes -0.553323
lfemur -98.7784 6.46736 -30.526
ltibia 120.111
lfoot -12.7554 8.19879
ltoes -13.9979
1795
root -4.54154 15.6526 -22.9329 354.324 -20.862 -6.69626
lowerback 31.2043 -2.70094 5.09612
upperback 6.86326 -1.76944 1.95177
thorax -9.39479 -0.989982 -0.0451049
lowerneck -3.04579 7.71779 0.411143
upperneck -2.74559 10.254 -3.10145
head -0.154856 5.13396 -0.917688
rclavicle -4.1049e-014 4.70126e-014
rhumerus -74.7998 23.8295 -99.8431
rradius 104.252
rwrist -75.0019
rhand -0.0217456 -20.1902
rfingers 7.12502
rthumb 25.5695 -48.4939
lclavicle -4.1049e-014 4.70126e-014
lhumerus 101.043 -60.9976 -1.79706
lradius 89.485
lwrist 45.7121
lhand -15.5012 384.415
lfingers 7.12502
lthumb 10.6813 414.124
rfemur -13.4304 -2.37882 26.0245
rtibia 57.9247
rfoot -26.6896 -9.32809
rtoes 0.347214
lfemur -100.14 5.70477 -30.4407
ltibia 120.128
lfoot -12.7436 8.19444
ltoes -13.7561
1796
root -4.538 15.667 -22.9829 353.054 -21.3242 -6.45543
lowerback 32.7179 -2.64208 4.83688
upperback 6.71406 -1.71119 1.76024
thorax -9.41638 -0.97129 -0.0723248
lowerneck -2.96938 7.75287 0.282581
upperneck -2.82837 10.3033 -3.01375
head -0.203121 5.16112 -0.876553
rclavicle 1.04859e-014 4.31363e-014
rhumerus -75.0559 24.2599 -100.163
rradius 104.323
rwrist -75.1778
rhand -0.175866 -20.3004
rfingers 7.12502
rthumb 25.4219 -48.6252
lclavicle 1.04859e-014 4.31363e-014
lhumerus 101.212 -59.7365 -0.607766
lradius 91.8392
lwrist 48.4893
lhand -15.7813 384.443
lfingers 7.12502
lthumb 10.4111 414.165
rfemur -12.2095 -1.84485 26.0218
rtibia 57.5849
rfoot -26.1286 -9.93599
rtoes 0.301272
lfemur -101.669 5.4884 -30.2097
ltibia 120.251
lfoot -12.6952 8.1869
ltoes -13.6933
1797
root -4.52692 15.6871 -23.0235 351.596 -21.8101 -6.12818
lowerback 34.1107 -2.52492 4.69445
upperback 7.01187 -1.58052 1.47025
thorax -9.62368 -0.91228 -0.319504
lowerneck -3.02344 7.77579 0.281403
upperneck -2.81245 10.3365 -2.85187
head -0.198028 5.1771 -0.824739
rclavicle 2.99668e-014 -9.44227e-015
rhumerus -75.1313 24.3509 -100.413
rradius 104.269
rwrist -75.4522
rhand -0.0559435 -20.2128
rfingers 7.12502
rthumb 25.5368 -48.5212
lclavicle 2.99668e-014 -9.44227e-015
lhumerus 101.558 -58.5027 0.504175
lradius 94.11
lwrist 51.1653
lhand -15.6258 384.532
lfingers 7.12502
lthumb 10.5611 414.246
rfemur -10.788 -1.42874 25.8599
rtibia 57.2193
rfoot -25.6279 -10.3641
rtoes 0.662642
lfemur -102.909 5.34733 -30.0124
ltibia 120.374
lfoot -12.7642 8.12511
ltoes -13.8039
1798
root -4.51601 15.7031 -23.0551 350.285 -22.2324 -5.70802
lowerback 35.264 -2.40329 4.55639
upperback 7.22397 -1.46345 1.15642
thorax -9.70137 -0.857872 -0.585956
lowerneck -3.14682 7.72027 0.270114
upperneck -2.72253 10.2665 -2.70816
head -0.160236 5.14037 -0.772996
rclavicle -2.72832e-014 -1.56046e-014
rhumerus -75.204 24.3931 -100.66
rradius 104.209
rwrist -75.5625
rhand -0.0843812 -20.2387
rfingers 7.12502
rthumb 25.5095 -48.551
lclavicle -2.72832e-014 -1.56046e-014
lhumerus 101.824 -57.3283 1.85327
lradius 96.159
lwrist 53.9316
lhand -15.9395 384.32
lfingers 7.12502
lthumb 10.2585 414.049
rfemur -9.57329 -1.0901 25.5677
rtibia 56.9401
rfoot -25.3425 -10.37
rtoes 2.21186
lfemur -104.326 5.14595 -29.8576
ltibia 120.559
lfoot -12.8354 7.86673
ltoes -13.9732
1799
root -4.5035 15.7208 -23.075 348.885 -22.546 -5.23075
lowerback 36.248 -2.38118 4.39195
upperback 7.54871 -1.5014 0.839056
thorax -9.70626 -0.872915 -0.80492
lowerneck -3.12032 7.73287 0.211667
upperneck -2.74037 10.2858 -2.59691
head -0.178777 5.15086 -0.732301
rclavicle 4.37326e-015 2.96189e-014
rhumerus -75.3663 24.654 -100.985
rradius 104.198
rwrist -75.6964
rhand -0.0965993 -20.2288
rfingers 7.12502
rthumb 25.4978 -48.5428
lclavicle 4.37326e-015 2.96189e-014
lhumerus 101.369 -56.2126 3.89989
lradius 97.9899
lwrist 56.25
lhand -15.0102 384.023
lfingers 7.12502
lthumb 11.1549 413.706
rfemur -8.24633 -0.978356 25.1501
rtibia 56.6662
rfoot -25.024 -10.571
rtoes 2.53223
lfemur -105.589 4.87308 -29.7199
ltibia 120.808
lfoot -13.0323 7.55942
ltoes -14.3186
1800
root -4.49459 15.7272 -23.1171 347.676 -22.8601 -4.85478
lowerback 37.3345 -2.24192 4.17825
upperback 7.74601 -1.3935 0.613654
thorax -9.87096 -0.822597 -0.955548
lowerneck -3.16077 7.67531 0.210502
upperneck -2.69312 10.2109 -2.51167
head -0.163566 5.11263 -0.704555
rclavicle -4.29375e-014 2.62396e-014
rhumerus -75.4686 24.7148 -101.257
rradius 104.124
rwrist -75.8513
rhand -0.196799 -20.2133
rfingers 7.12502
rthumb 25.4019 -48.541
lclavicle -4.29375e-014 2.62396e-014
lhumerus 101.169 -55.1626 5.85307
lradius 99.6744
lwrist 58.5937
lhand -15.1926 383.876
lfingers 7.12502
lthumb 10.979 413.569
rfemur -7.20778 -0.804507 24.9393
rtibia 56.49
rfoot -24.7196 -10.6614
rtoes 3.43095
lfemur -107.122 4.78224 -29.3581
ltibia 121.131
lfoot -13.1631 6.90305
ltoes -14.6993
1801
root -4.48106 15.7397 -23.1386 346.398 -23.4065 -4.31574
lowerback 38.2615 -2.08282 3.85555
upperback 7.95595 -1.32806 0.33468
thorax -9.95808 -0.789655 -1.09582
lowerneck -3.08521 7.72985 0.176232
upperneck -2.65788 10.2854 -2.46509
head -0.168358 5.1504 -0.686944
rclavicle 1.61513e-014 -9.93923e-016
rhumerus -75.7237 25.0537 -101.618
rradius 104.136
rwrist -76.0806
rhand -0.257646 -20.3685
rfingers 7.12502
rthumb 25.3436 -48.7045
lclavicle 1.61513e-014 -9.93923e-016
lhumerus 100.371 -54.1324 8.26154
lradius 101.172
lwrist 60.7836
lhand -14.9678 383.714
lfingers 7.12502
lthumb 11.1958 413.396
rfemur -6.14632 -0.458202 24.5096
rtibia 56.3439
rfoot -24.5427 -10.4863
rtoes 4.75156
lfemur -108.588 5.00522 -29.1127
ltibia 121.614
lfoot -13.4184 6.38766
ltoes -14.7457
1802
root -4.46583 15.7476 -23.1456 345.087 -24.2127 -3.6914
lowerback 39.0927 -1.79681 3.56468
upperback 8.21609 -1.11536 0.00976477
thorax -9.94299 -0.68866 -1.36741
lowerneck -3.16473 7.72221 0.135221
upperneck -2.64047 10.2783 -2.33495
head -0.159633 5.14648 -0.638193
rclavicle 1.99779e-014 -4.09496e-014
rhumerus -75.8041 25.2389 -101.916
rradius 104.091
rwrist -76.2718
rhand -0.3645 -20.3973
rfingers 7.12502
rthumb 25.2412 -48.7477
lclavicle 1.99779e-014 -4.09496e-014
lhumerus 99.6891 -53.1888 10.7375
lradius 102.375
lwrist 62.6493
lhand -16.093 383.765
lfingers 7.12502
lthumb 10.1105 413.502
rfemur -5.1221 0.0664961 24.0299
rtibia 56.2775
rfoot -24.3618 -10.4024
rtoes 5.29665
lfemur -110.07 5.5428 -28.8846
ltibia 122.356
lfoot -13.7868 6.29741
ltoes -14.7879
